<svg width="46" height="46" viewBox="0 0 46 46" fill="none" xmlns="http://www.w3.org/2000/svg">
<path d="M1 9C1 4.58172 4.58172 1 9 1H37C41.4183 1 45 4.58172 45 9V37C45 41.4183 41.4183 45 37 45H9C4.58172 45 1 41.4183 1 37V9Z" stroke="#E4E5ED"/>
<path fill-rule="evenodd" clip-rule="evenodd" d="M20.1166 13.85C19.7576 13.85 19.4666 14.141 19.4666 14.5C19.4666 14.859 19.7576 15.15 20.1166 15.15H25.7321C26.0911 15.15 26.3821 14.859 26.3821 14.5C26.3821 14.141 26.0911 13.85 25.7321 13.85H20.1166ZM13.8501 16.9785C13.8501 16.6196 14.1411 16.3285 14.5001 16.3285H16.6059H29.2407H31.3465C31.7055 16.3285 31.9965 16.6196 31.9965 16.9785C31.9965 17.3375 31.7055 17.6285 31.3465 17.6285H29.8907V29.8427C29.8907 31.052 28.9104 32.0324 27.701 32.0324H18.1456C16.9362 32.0324 15.9559 31.052 15.9559 29.8427V17.6285H14.5001C14.1411 17.6285 13.8501 17.3375 13.8501 16.9785ZM17.2559 17.6285V29.8427C17.2559 30.3341 17.6542 30.7324 18.1456 30.7324H27.701C28.1924 30.7324 28.5907 30.3341 28.5907 29.8427V17.6285H17.2559ZM20.8162 19.7056C21.1752 19.7056 21.4662 19.9966 21.4662 20.3556V28.2327C21.4662 28.5917 21.1752 28.8827 20.8162 28.8827C20.4572 28.8827 20.1662 28.5917 20.1662 28.2327V20.3556C20.1662 19.9966 20.4572 19.7056 20.8162 19.7056ZM25.0278 19.7056C25.3868 19.7056 25.6778 19.9966 25.6778 20.3556V28.2327C25.6778 28.5917 25.3868 28.8827 25.0278 28.8827C24.6688 28.8827 24.3778 28.5917 24.3778 28.2327V20.3556C24.3778 19.9966 24.6688 19.7056 25.0278 19.7056Z" fill="#9196AF"/>
</svg>
