<svg width="44" height="44" viewBox="0 0 44 44" fill="none" xmlns="http://www.w3.org/2000/svg">
<path d="M0 8C0 3.58172 3.58172 0 8 0H36C40.4183 0 44 3.58172 44 8V36C44 40.4183 40.4183 44 36 44H8C3.58172 44 0 40.4183 0 36V8Z" fill="#F1F2F5"/>
<g clip-path="url(#clip0)">
<path d="M29.9457 14.0549C29.2654 13.3746 28.361 13 27.399 13C26.4371 13 25.5326 13.3746 24.8524 14.0549L14.7873 24.12C14.7017 24.2056 14.6396 24.3119 14.6072 24.4286L13.0262 30.1083C12.9581 30.3533 13.0274 30.616 13.2078 30.7954C13.3414 30.9282 13.5204 31 13.7037 31C13.7677 31 13.8323 30.9912 13.8957 30.9732L19.5755 29.3599C19.8151 29.2918 20.0009 29.102 20.0637 28.8609C20.1266 28.6199 20.0572 28.3635 19.8813 28.1871L16.3006 24.5955L24.6437 16.2523L27.7465 19.3552L21.3595 25.7247C21.0846 25.999 21.084 26.4441 21.3582 26.7191C21.6324 26.9941 22.0776 26.9946 22.3525 26.7205L29.9456 19.1481C30.6259 18.4679 31.0005 17.5635 31.0005 16.6015C31.0005 15.6395 30.6259 14.7351 29.9457 14.0549ZM18.0417 28.3337L14.7171 29.278L15.6482 25.9329L18.0417 28.3337ZM28.9519 18.153L28.7422 18.3622L25.6381 15.258L25.8468 15.0492C26.2614 14.6346 26.8127 14.4062 27.399 14.4062C27.9854 14.4062 28.5366 14.6346 28.9513 15.0493C29.3659 15.4639 29.5942 16.0151 29.5942 16.6015C29.5942 17.1878 29.3659 17.7391 28.9519 18.153Z" fill="#9196AF" stroke="#F1F2F5" stroke-width="0.1" stroke-linecap="round" stroke-linejoin="round"/>
</g>
<defs>
<clipPath id="clip0">
<rect width="18" height="18" fill="white" transform="translate(13 13)"/>
</clipPath>
</defs>
</svg>
